{
  "accessors": [
    {
      "bufferView": 2,
      "componentType": 5126,
      "count": 65532,
      "max": [
        7.496129989624023,
        6.079885959625244,
        20.05600357055664
      ],
      "min": [
        -3.7121949195861816,
        -5.15894889831543,
        0.12430699914693832
      ],
      "type": "VEC3"
    },
    {
      "bufferView": 2,
      "byteOffset": 786384,
      "componentType": 5126,
      "count": 65532,
      "max": [
        0.9999940395355225,
        0.9999873638153076,
        0.9998244643211365
      ],
      "min": [
        -0.9999949932098389,
        -0.9999676942825317,
        -0.9997445940971375
      ],
      "type": "VEC3"
    },
    {
      "bufferView": 1,
      "componentType": 5126,
      "count": 65532,
      "max": [
        0.9995880126953125,
        0.9997559785842896
      ],
      "min": [
        0.00024399999529123306,
        0.007015999872237444
      ],
      "type": "VEC2"
    },
    {
      "bufferView": 0,
      "componentType": 5125,
      "count": 311586,
      "type": "SCALAR"
    },
    {
      "bufferView": 2,
      "byteOffset": 1572768,
      "componentType": 5126,
      "count": 65532,
      "max": [
        7.281397819519043,
        6.079885959625244,
        26.929237365722656
      ],
      "min": [
        -3.260179042816162,
        -5.148173809051514,
        0.1516910046339035
      ],
      "type": "VEC3"
    },
    {
      "bufferView": 2,
      "byteOffset": 2359152,
      "componentType": 5126,
      "count": 65532,
      "max": [
        0.9999940395355225,
        0.9999873638153076,
        0.9999939203262329
      ],
      "min": [
        -0.9999923706054688,
        -0.9999557733535767,
        -0.9999223947525024
      ],
      "type": "VEC3"
    },
    {
      "bufferView": 1,
      "byteOffset": 524256,
      "componentType": 5126,
      "count": 65532,
      "max": [
        0.9995970129966736,
        0.9997559785842896
      ],
      "min": [
        0.00024399999529123306,
        0.0005280000041238964
      ],
      "type": "VEC2"
    },
    {
      "bufferView": 0,
      "byteOffset": 1246344,
      "componentType": 5125,
      "count": 290247,
      "type": "SCALAR"
    },
    {
      "bufferView": 2,
      "byteOffset": 3145536,
      "componentType": 5126,
      "count": 65532,
      "max": [
        7.182186126708984,
        5.743957996368408,
        31.19617462158203
      ],
      "min": [
        -4.74888801574707,
        -7.308337211608887,
        0.14574599266052246
      ],
      "type": "VEC3"
    },
    {
      "bufferView": 2,
      "byteOffset": 3931920,
      "componentType": 5126,
      "count": 65532,
      "max": [
        0.9999691247940063,
        0.9999549388885498,
        0.9998854398727417
      ],
      "min": [
        -0.9999502897262573,
        -0.9999760389328003,
        -0.9999212026596069
      ],
      "type": "VEC3"
    },
    {
      "bufferView": 1,
      "byteOffset": 1048512,
      "componentType": 5126,
      "count": 65532,
      "max": [
        0.9993399977684021,
        0.9997559785842896
      ],
      "min": [
        0.00024399999529123306,
        0.0004020000051241368
      ],
      "type": "VEC2"
    },
    {
      "bufferView": 0,
      "byteOffset": 2407332,
      "componentType": 5125,
      "count": 278376,
      "type": "SCALAR"
    },
    {
      "bufferView": 2,
      "byteOffset": 4718304,
      "componentType": 5126,
      "count": 65532,
      "max": [
        7.277735233306885,
        5.794372081756592,
        31.182220458984375
      ],
      "min": [
        -6.726504802703857,
        -5.002964973449707,
        0.12430699914693832
      ],
      "type": "VEC3"
    },
    {
      "bufferView": 2,
      "byteOffset": 5504688,
      "componentType": 5126,
      "count": 65532,
      "max": [
        0.9999940395355225,
        0.9999996423721313,
        0.9999942779541016
      ],
      "min": [
        -0.9999878406524658,
        -0.9999953508377075,
        -0.999700129032135
      ],
      "type": "VEC3"
    },
    {
      "bufferView": 1,
      "byteOffset": 1572768,
      "componentType": 5126,
      "count": 65532,
      "max": [
        0.9993270039558411,
        0.9997559785842896
      ],
      "min": [
        0.00024399999529123306,
        0.0005489999894052744
      ],
      "type": "VEC2"
    },
    {
      "bufferView": 0,
      "byteOffset": 3520836,
      "componentType": 5125,
      "count": 284226,
      "type": "SCALAR"
    },
    {
      "bufferView": 2,
      "byteOffset": 6291072,
      "componentType": 5126,
      "count": 65532,
      "max": [
        7.489344120025635,
        4.93411922454834,
        30.230613708496094
      ],
      "min": [
        -6.744026184082031,
        -7.302249908447266,
        8.644048690795898
      ],
      "type": "VEC3"
    },
    {
      "bufferView": 2,
      "byteOffset": 7077456,
      "componentType": 5126,
      "count": 65532,
      "max": [
        0.9999284744262695,
        0.9999996423721313,
        0.9998821020126343
      ],
      "min": [
        -0.9996636509895325,
        -0.9999983310699463,
        -0.9999955892562866
      ],
      "type": "VEC3"
    },
    {
      "bufferView": 1,
      "byteOffset": 2097024,
      "componentType": 5126,
      "count": 65532,
      "max": [
        0.9996089935302734,
        0.9997559785842896
      ],
      "min": [
        0.00024399999529123306,
        0.0005600000149570405
      ],
      "type": "VEC2"
    },
    {
      "bufferView": 0,
      "byteOffset": 4657740,
      "componentType": 5125,
      "count": 293379,
      "type": "SCALAR"
    },
    {
      "bufferView": 2,
      "byteOffset": 7863840,
      "componentType": 5126,
      "count": 65532,
      "max": [
        6.87025785446167,
        5.471076965332031,
        33.3565673828125
      ],
      "min": [
        -4.639283180236816,
        -6.627570152282715,
        0.15305599570274353
      ],
      "type": "VEC3"
    },
    {
      "bufferView": 2,
      "byteOffset": 8650224,
      "componentType": 5126,
      "count": 65532,
      "max": [
        0.9999587535858154,
        0.9999123811721802,
        1.0
      ],
      "min": [
        -0.9999926090240479,
        -0.9998887777328491,
        -0.9999072551727295
      ],
      "type": "VEC3"
    },
    {
      "bufferView": 1,
      "byteOffset": 2621280,
      "componentType": 5126,
      "count": 65532,
      "max": [
        0.9995560050010681,
        0.9997559785842896
      ],
      "min": [
        0.00024399999529123306,
        0.0004360000020824373
      ],
      "type": "VEC2"
    },
    {
      "bufferView": 0,
      "byteOffset": 5831256,
      "componentType": 5125,
      "count": 279156,
      "type": "SCALAR"
    },
    {
      "bufferView": 2,
      "byteOffset": 9436608,
      "componentType": 5126,
      "count": 65532,
      "max": [
        7.334649085998535,
        5.765510082244873,
        33.763790130615234
      ],
      "min": [
        -3.907715082168579,
        -6.490475177764893,
        0.1281059980392456
      ],
      "type": "VEC3"
    },
    {
      "bufferView": 2,
      "byteOffset": 10222992,
      "componentType": 5126,
      "count": 65532,
      "max": [
        0.9998428225517273,
        0.9999862909317017,
        0.9999740123748779
      ],
      "min": [
        -0.9998458027839661,
        -0.9999949932098389,
        -0.9999685287475586
      ],
      "type": "VEC3"
    },
    {
      "bufferView": 1,
      "byteOffset": 3145536,
      "componentType": 5126,
      "count": 65532,
      "max": [
        0.9995319843292236,
        0.9997559785842896
      ],
      "min": [
        0.00024399999529123306,
        0.0004020000051241368
      ],
      "type": "VEC2"
    },
    {
      "bufferView": 0,
      "byteOffset": 6947880,
      "componentType": 5125,
      "count": 260613,
      "type": "SCALAR"
    },
    {
      "bufferView": 2,
      "byteOffset": 11009376,
      "componentType": 5126,
      "count": 65532,
      "max": [
        3.3448450565338135,
        5.784908771514893,
        33.723873138427734
      ],
      "min": [
        -5.587698936462402,
        -6.235202789306641,
        0.3186889886856079
      ],
      "type": "VEC3"
    },
    {
      "bufferView": 2,
      "byteOffset": 11795760,
      "componentType": 5126,
      "count": 65532,
      "max": [
        0.9999657869338989,
        0.9999972581863403,
        0.9999289512634277
      ],
      "min": [
        -0.9999964237213135,
        -0.9999949932098389,
        -0.9999390840530396
      ],
      "type": "VEC3"
    },
    {
      "bufferView": 1,
      "byteOffset": 3669792,
      "componentType": 5126,
      "count": 65532,
      "max": [
        0.9995750188827515,
        0.9997559785842896
      ],
      "min": [
        0.00024399999529123306,
        0.00048600000445730984
      ],
      "type": "VEC2"
    },
    {
      "bufferView": 0,
      "byteOffset": 7990332,
      "componentType": 5125,
      "count": 243303,
      "type": "SCALAR"
    },
    {
      "bufferView": 2,
      "byteOffset": 12582144,
      "componentType": 5126,
      "count": 9158,
      "max": [
        3.5907680988311768,
        2.6291489601135254,
        32.021728515625
      ],
      "min": [
        -5.073617935180664,
        -4.898880958557129,
        0.3275339901447296
      ],
      "type": "VEC3"
    },
    {
      "bufferView": 2,
      "byteOffset": 12692040,
      "componentType": 5126,
      "count": 9158,
      "max": [
        0.9990578889846802,
        0.9999996423721313,
        0.9994357824325562
      ],
      "min": [
        -0.9941223859786987,
        -0.9997749924659729,
        -0.9997705817222595
      ],
      "type": "VEC3"
    },
    {
      "bufferView": 1,
      "byteOffset": 4194048,
      "componentType": 5126,
      "count": 9158,
      "max": [
        0.9987289905548096,
        0.9997559785842896
      ],
      "min": [
        0.00024399999529123306,
        0.000686999992467463
      ],
      "type": "VEC2"
    },
    {
      "bufferView": 0,
      "byteOffset": 8963544,
      "componentType": 5125,
      "count": 26688,
      "type": "SCALAR"
    },
    {
      "bufferView": 2,
      "byteOffset": 12801936,
      "componentType": 5126,
      "count": 2453,
      "max": [
        6.0351948738098145,
        4.858118057250977,
        0.1243090033531189
      ],
      "min": [
        -3.354274034500122,
        -4.857855796813965,
        0.12430699914693832
      ],
      "type": "VEC3"
    },
    {
      "bufferView": 2,
      "byteOffset": 12831372,
      "componentType": 5126,
      "count": 2453,
      "max": [
        0.04350011423230171,
        0.9013023972511292,
        -0.28548723459243774
      ],
      "min": [
        -0.30108651518821716,
        -0.9098593592643738,
        -1.0
      ],
      "type": "VEC3"
    },
    {
      "bufferView": 1,
      "byteOffset": 4267312,
      "componentType": 5126,
      "count": 2453,
      "max": [
        0.7911840081214905,
        0.6839359998703003
      ],
      "min": [
        0.6758990287780762,
        0.5660610198974609
      ],
      "type": "VEC2"
    },
    {
      "bufferView": 0,
      "byteOffset": 9070296,
      "componentType": 5125,
      "count": 3876,
      "type": "SCALAR"
    }
  ],
  "asset": {
    "extras": {
      "author": "noe-3d.at (https://sketchfab.com/www.noe-3d.at)",
      "license": "CC-BY-NC-4.0 (http://creativecommons.org/licenses/by-nc/4.0/)",
      "source": "https://sketchfab.com/3d-models/zeus-dc7eeeb250f74f93b183378a3dba01f3",
      "title": "Zeus"
    },
    "generator": "Sketchfab-14.48.0",
    "version": "2.0"
  },
  "bufferViews": [
    {
      "buffer": 0,
      "byteLength": 9085800,
      "name": "floatBufferViews",
      "target": 34963
    },
    {
      "buffer": 0,
      "byteLength": 4286936,
      "byteOffset": 9085800,
      "byteStride": 8,
      "name": "floatBufferViews",
      "target": 34962
    },
    {
      "buffer": 0,
      "byteLength": 12860808,
      "byteOffset": 13372736,
      "byteStride": 12,
      "name": "floatBufferViews",
      "target": 34962
    }
  ],
  "buffers": [
    {
      "byteLength": 26233544,
      "uri": "scene.bin"
    }
  ],
  "images": [
    {
      "uri": "textures/Statue_O_Material_u1_v1_baseColor.png"
    }
  ],
  "materials": [
    {
      "doubleSided": true,
      "name": "Statue_O_Material_u1_v1",
      "pbrMetallicRoughness": {
        "baseColorTexture": {
          "index": 0
        },
        "metallicFactor": 0.0
      }
    },
    {
      "doubleSided": true,
      "name": "bottom",
      "pbrMetallicRoughness": {
        "baseColorFactor": [
          0.04981373352756884,
          0.04981373352756884,
          0.04981373352756884,
          1.0
        ],
        "metallicFactor": 0.0
      }
    }
  ],
  "meshes": [
    {
      "name": "Object_0",
      "primitives": [
        {
          "attributes": {
            "NORMAL": 1,
            "POSITION": 0,
            "TEXCOORD_0": 2
          },
          "indices": 3,
          "material": 0,
          "mode": 4
        }
      ]
    },
    {
      "name": "Object_1",
      "primitives": [
        {
          "attributes": {
            "NORMAL": 5,
            "POSITION": 4,
            "TEXCOORD_0": 6
          },
          "indices": 7,
          "material": 0,
          "mode": 4
        }
      ]
    },
    {
      "name": "Object_2",
      "primitives": [
        {
          "attributes": {
            "NORMAL": 9,
            "POSITION": 8,
            "TEXCOORD_0": 10
          },
          "indices": 11,
          "material": 0,
          "mode": 4
        }
      ]
    },
    {
      "name": "Object_3",
      "primitives": [
        {
          "attributes": {
            "NORMAL": 13,
            "POSITION": 12,
            "TEXCOORD_0": 14
          },
          "indices": 15,
          "material": 0,
          "mode": 4
        }
      ]
    },
    {
      "name": "Object_4",
      "primitives": [
        {
          "attributes": {
            "NORMAL": 17,
            "POSITION": 16,
            "TEXCOORD_0": 18
          },
          "indices": 19,
          "material": 0,
          "mode": 4
        }
      ]
    },
    {
      "name": "Object_5",
      "primitives": [
        {
          "attributes": {
            "NORMAL": 21,
            "POSITION": 20,
            "TEXCOORD_0": 22
          },
          "indices": 23,
          "material": 0,
          "mode": 4
        }
      ]
    },
    {
      "name": "Object_6",
      "primitives": [
        {
          "attributes": {
            "NORMAL": 25,
            "POSITION": 24,
            "TEXCOORD_0": 26
          },
          "indices": 27,
          "material": 0,
          "mode": 4
        }
      ]
    },
    {
      "name": "Object_7",
      "primitives": [
        {
          "attributes": {
            "NORMAL": 29,
            "POSITION": 28,
            "TEXCOORD_0": 30
          },
          "indices": 31,
          "material": 0,
          "mode": 4
        }
      ]
    },
    {
      "name": "Object_8",
      "primitives": [
        {
          "attributes": {
            "NORMAL": 33,
            "POSITION": 32,
            "TEXCOORD_0": 34
          },
          "indices": 35,
          "material": 0,
          "mode": 4
        }
      ]
    },
    {
      "name": "Object_9",
      "primitives": [
        {
          "attributes": {
            "NORMAL": 37,
            "POSITION": 36,
            "TEXCOORD_0": 38
          },
          "indices": 39,
          "material": 1,
          "mode": 4
        }
      ]
    }
  ],
  "nodes": [
    {
      "children": [
        1
      ],
      "matrix": [
        0.06121366719418875,
        4.234801211023384e-20,
        -0.00019071849155953037,
        0.0,
        -0.00019071849155953037,
        1.359216454814599e-17,
        -0.06121366719418875,
        0.0,
        0.0,
        0.061213962733745575,
        1.3592230171110126e-17,
        0.0,
        0.0,
        0.0,
        0.0,
        1.0
      ],
      "name": "Sketchfab_model"
    },
    {
      "children": [
        2,
        3,
        4,
        5,
        6,
        7,
        8,
        9,
        10,
        11
      ],
      "name": "Zeus.obj.cleaner.materialmerger.gles"
    },
    {
      "mesh": 0,
      "name": "Object_2"
    },
    {
      "mesh": 1,
      "name": "Object_3"
    },
    {
      "mesh": 2,
      "name": "Object_4"
    },
    {
      "mesh": 3,
      "name": "Object_5"
    },
    {
      "mesh": 4,
      "name": "Object_6"
    },
    {
      "mesh": 5,
      "name": "Object_7"
    },
    {
      "mesh": 6,
      "name": "Object_8"
    },
    {
      "mesh": 7,
      "name": "Object_9"
    },
    {
      "mesh": 8,
      "name": "Object_10"
    },
    {
      "mesh": 9,
      "name": "Object_11"
    }
  ],
  "samplers": [
    {
      "magFilter": 9729,
      "minFilter": 9987,
      "wrapS": 10497,
      "wrapT": 10497
    }
  ],
  "scene": 0,
  "scenes": [
    {
      "name": "Sketchfab_Scene",
      "nodes": [
        0
      ]
    }
  ],
  "textures": [
    {
      "sampler": 0,
      "source": 0
    }
  ]
}
